<mxfile host="app.diagrams.net" modified="2023-05-24T13:17:15.905Z" agent="Mozilla/5.0 (X11; Ubuntu; Linux x86_64; rv:109.0) Gecko/20100101 Firefox/113.0" etag="CtbG7fzj6DofXJrVtrzo" version="21.3.3" type="device">
  <diagram name="Page-1" id="crofGTmK77k4lmUzLzV7">
    <mxGraphModel dx="2462" dy="1408" grid="1" gridSize="10" guides="1" tooltips="1" connect="1" arrows="1" fold="1" page="1" pageScale="1" pageWidth="850" pageHeight="1100" math="0" shadow="0">
      <root>
        <mxCell id="0" />
        <mxCell id="1" parent="0" />
        <mxCell id="dY17clIJ0vEmdPIZtcdb-39" value="" style="rounded=0;whiteSpace=wrap;html=1;" vertex="1" parent="1">
          <mxGeometry x="100" y="140" width="420" height="380" as="geometry" />
        </mxCell>
        <mxCell id="dY17clIJ0vEmdPIZtcdb-1" value="" style="ellipse;whiteSpace=wrap;html=1;aspect=fixed;" vertex="1" parent="1">
          <mxGeometry x="140" y="320" width="160" height="160" as="geometry" />
        </mxCell>
        <mxCell id="dY17clIJ0vEmdPIZtcdb-3" value="" style="rounded=0;whiteSpace=wrap;html=1;rotation=90;" vertex="1" parent="1">
          <mxGeometry x="165" y="205" width="30" height="40" as="geometry" />
        </mxCell>
        <mxCell id="dY17clIJ0vEmdPIZtcdb-4" value="" style="rounded=0;whiteSpace=wrap;html=1;rotation=90;" vertex="1" parent="1">
          <mxGeometry x="245" y="205" width="30" height="40" as="geometry" />
        </mxCell>
        <mxCell id="dY17clIJ0vEmdPIZtcdb-5" value="" style="rounded=0;whiteSpace=wrap;html=1;rotation=90;" vertex="1" parent="1">
          <mxGeometry x="345" y="205" width="30" height="40" as="geometry" />
        </mxCell>
        <mxCell id="dY17clIJ0vEmdPIZtcdb-6" value="" style="rounded=0;whiteSpace=wrap;html=1;rotation=90;direction=south;" vertex="1" parent="1">
          <mxGeometry x="425" y="205" width="30" height="40" as="geometry" />
        </mxCell>
        <mxCell id="dY17clIJ0vEmdPIZtcdb-8" value="" style="endArrow=none;html=1;rounded=0;entryX=0.5;entryY=1;entryDx=0;entryDy=0;exitX=0.5;exitY=0;exitDx=0;exitDy=0;" edge="1" parent="1" source="dY17clIJ0vEmdPIZtcdb-1" target="dY17clIJ0vEmdPIZtcdb-1">
          <mxGeometry width="50" height="50" relative="1" as="geometry">
            <mxPoint x="280" y="300" as="sourcePoint" />
            <mxPoint x="330" y="250" as="targetPoint" />
          </mxGeometry>
        </mxCell>
        <mxCell id="dY17clIJ0vEmdPIZtcdb-10" value="" style="endArrow=none;html=1;rounded=0;entryX=0;entryY=0.5;entryDx=0;entryDy=0;exitX=1;exitY=0.5;exitDx=0;exitDy=0;" edge="1" parent="1" source="dY17clIJ0vEmdPIZtcdb-1" target="dY17clIJ0vEmdPIZtcdb-1">
          <mxGeometry width="50" height="50" relative="1" as="geometry">
            <mxPoint x="230" y="330" as="sourcePoint" />
            <mxPoint x="230" y="490" as="targetPoint" />
          </mxGeometry>
        </mxCell>
        <mxCell id="dY17clIJ0vEmdPIZtcdb-12" value="" style="endArrow=none;html=1;rounded=0;entryX=0;entryY=0.5;entryDx=0;entryDy=0;exitX=1;exitY=0.5;exitDx=0;exitDy=0;" edge="1" source="dY17clIJ0vEmdPIZtcdb-14" target="dY17clIJ0vEmdPIZtcdb-14" parent="1">
          <mxGeometry width="50" height="50" relative="1" as="geometry">
            <mxPoint x="410" y="330" as="sourcePoint" />
            <mxPoint x="410" y="490" as="targetPoint" />
          </mxGeometry>
        </mxCell>
        <mxCell id="dY17clIJ0vEmdPIZtcdb-13" value="" style="endArrow=none;html=1;rounded=0;entryX=0.5;entryY=1;entryDx=0;entryDy=0;exitX=0.5;exitY=0;exitDx=0;exitDy=0;" edge="1" source="dY17clIJ0vEmdPIZtcdb-14" target="dY17clIJ0vEmdPIZtcdb-14" parent="1">
          <mxGeometry width="50" height="50" relative="1" as="geometry">
            <mxPoint x="520" y="300" as="sourcePoint" />
            <mxPoint x="570" y="250" as="targetPoint" />
          </mxGeometry>
        </mxCell>
        <mxCell id="dY17clIJ0vEmdPIZtcdb-14" value="" style="ellipse;whiteSpace=wrap;html=1;aspect=fixed;" vertex="1" parent="1">
          <mxGeometry x="320" y="320" width="160" height="160" as="geometry" />
        </mxCell>
        <mxCell id="dY17clIJ0vEmdPIZtcdb-15" value="" style="endArrow=none;html=1;rounded=0;entryX=0;entryY=0.5;entryDx=0;entryDy=0;exitX=1;exitY=0.5;exitDx=0;exitDy=0;" edge="1" parent="1">
          <mxGeometry width="50" height="50" relative="1" as="geometry">
            <mxPoint x="480" y="399.76" as="sourcePoint" />
            <mxPoint x="320" y="399.76" as="targetPoint" />
          </mxGeometry>
        </mxCell>
        <mxCell id="dY17clIJ0vEmdPIZtcdb-16" value="" style="endArrow=none;html=1;rounded=0;entryX=0.5;entryY=1;entryDx=0;entryDy=0;exitX=0.5;exitY=0;exitDx=0;exitDy=0;" edge="1" parent="1">
          <mxGeometry width="50" height="50" relative="1" as="geometry">
            <mxPoint x="399.52" y="320" as="sourcePoint" />
            <mxPoint x="399.52" y="480" as="targetPoint" />
          </mxGeometry>
        </mxCell>
        <mxCell id="dY17clIJ0vEmdPIZtcdb-18" value="&lt;font style=&quot;font-size: 10px;&quot;&gt;SWA&lt;/font&gt;" style="text;html=1;strokeColor=none;fillColor=none;align=center;verticalAlign=middle;whiteSpace=wrap;rounded=0;" vertex="1" parent="1">
          <mxGeometry x="155" y="190" width="50" height="20" as="geometry" />
        </mxCell>
        <mxCell id="dY17clIJ0vEmdPIZtcdb-19" value="&lt;font style=&quot;font-size: 10px;&quot;&gt;SWB&lt;/font&gt;" style="text;html=1;strokeColor=none;fillColor=none;align=center;verticalAlign=middle;whiteSpace=wrap;rounded=0;" vertex="1" parent="1">
          <mxGeometry x="235" y="190" width="50" height="20" as="geometry" />
        </mxCell>
        <mxCell id="dY17clIJ0vEmdPIZtcdb-20" value="&lt;font style=&quot;font-size: 10px;&quot;&gt;SWC&lt;/font&gt;" style="text;html=1;strokeColor=none;fillColor=none;align=center;verticalAlign=middle;whiteSpace=wrap;rounded=0;" vertex="1" parent="1">
          <mxGeometry x="335" y="190" width="50" height="20" as="geometry" />
        </mxCell>
        <mxCell id="dY17clIJ0vEmdPIZtcdb-21" value="&lt;font style=&quot;font-size: 10px;&quot;&gt;SWD&lt;/font&gt;" style="text;html=1;strokeColor=none;fillColor=none;align=center;verticalAlign=middle;whiteSpace=wrap;rounded=0;" vertex="1" parent="1">
          <mxGeometry x="415" y="190" width="50" height="20" as="geometry" />
        </mxCell>
        <mxCell id="dY17clIJ0vEmdPIZtcdb-22" value="" style="ellipse;whiteSpace=wrap;html=1;aspect=fixed;" vertex="1" parent="1">
          <mxGeometry x="270" y="275" width="30" height="30" as="geometry" />
        </mxCell>
        <mxCell id="dY17clIJ0vEmdPIZtcdb-23" value="" style="ellipse;whiteSpace=wrap;html=1;aspect=fixed;" vertex="1" parent="1">
          <mxGeometry x="320" y="275" width="30" height="30" as="geometry" />
        </mxCell>
        <mxCell id="dY17clIJ0vEmdPIZtcdb-24" value="&lt;font style=&quot;font-size: 10px;&quot;&gt;VRA&lt;/font&gt;" style="text;html=1;strokeColor=none;fillColor=none;align=center;verticalAlign=middle;whiteSpace=wrap;rounded=0;" vertex="1" parent="1">
          <mxGeometry x="270" y="260" width="30" height="20" as="geometry" />
        </mxCell>
        <mxCell id="dY17clIJ0vEmdPIZtcdb-25" value="&lt;font style=&quot;font-size: 10px;&quot;&gt;VRB&lt;/font&gt;" style="text;html=1;strokeColor=none;fillColor=none;align=center;verticalAlign=middle;whiteSpace=wrap;rounded=0;" vertex="1" parent="1">
          <mxGeometry x="320" y="260" width="30" height="20" as="geometry" />
        </mxCell>
        <mxCell id="dY17clIJ0vEmdPIZtcdb-26" value="&lt;font style=&quot;font-size: 8px;&quot;&gt;CH3&lt;/font&gt;" style="text;html=1;strokeColor=none;fillColor=none;align=center;verticalAlign=middle;whiteSpace=wrap;rounded=0;" vertex="1" parent="1">
          <mxGeometry x="207.5" y="480" width="25" height="20" as="geometry" />
        </mxCell>
        <mxCell id="dY17clIJ0vEmdPIZtcdb-29" value="&lt;font style=&quot;font-size: 8px;&quot;&gt;CH4&lt;/font&gt;" style="text;html=1;strokeColor=none;fillColor=none;align=center;verticalAlign=middle;whiteSpace=wrap;rounded=0;" vertex="1" parent="1">
          <mxGeometry x="105" y="390" width="50" height="20" as="geometry" />
        </mxCell>
        <mxCell id="dY17clIJ0vEmdPIZtcdb-30" value="&lt;font style=&quot;font-size: 8px;&quot;&gt;CH2&lt;/font&gt;" style="text;html=1;strokeColor=none;fillColor=none;align=center;verticalAlign=middle;whiteSpace=wrap;rounded=0;" vertex="1" parent="1">
          <mxGeometry x="387.5" y="480" width="25" height="20" as="geometry" />
        </mxCell>
        <mxCell id="dY17clIJ0vEmdPIZtcdb-31" value="&lt;font style=&quot;font-size: 8px;&quot;&gt;CH1&lt;/font&gt;" style="text;html=1;strokeColor=none;fillColor=none;align=center;verticalAlign=middle;whiteSpace=wrap;rounded=0;" vertex="1" parent="1">
          <mxGeometry x="465" y="390" width="50" height="20" as="geometry" />
        </mxCell>
        <mxCell id="dY17clIJ0vEmdPIZtcdb-32" value="&lt;font style=&quot;font-size: 8px;&quot;&gt;CH5&lt;/font&gt;" style="text;html=1;strokeColor=none;fillColor=none;align=center;verticalAlign=middle;whiteSpace=wrap;rounded=0;" vertex="1" parent="1">
          <mxGeometry x="160" y="240" width="40" height="20" as="geometry" />
        </mxCell>
        <mxCell id="dY17clIJ0vEmdPIZtcdb-33" value="&lt;font style=&quot;font-size: 8px;&quot;&gt;CH6&lt;/font&gt;" style="text;html=1;strokeColor=none;fillColor=none;align=center;verticalAlign=middle;whiteSpace=wrap;rounded=0;" vertex="1" parent="1">
          <mxGeometry x="420" y="240" width="40" height="20" as="geometry" />
        </mxCell>
        <mxCell id="dY17clIJ0vEmdPIZtcdb-34" value="&lt;font style=&quot;font-size: 10px;&quot;&gt;----&lt;/font&gt;" style="text;html=1;strokeColor=none;fillColor=none;align=center;verticalAlign=middle;whiteSpace=wrap;rounded=0;" vertex="1" parent="1">
          <mxGeometry x="240" y="240" width="40" height="20" as="geometry" />
        </mxCell>
        <mxCell id="dY17clIJ0vEmdPIZtcdb-35" value="&lt;font style=&quot;font-size: 10px;&quot;&gt;----&lt;/font&gt;" style="text;html=1;strokeColor=none;fillColor=none;align=center;verticalAlign=middle;whiteSpace=wrap;rounded=0;" vertex="1" parent="1">
          <mxGeometry x="340" y="240" width="40" height="20" as="geometry" />
        </mxCell>
        <mxCell id="dY17clIJ0vEmdPIZtcdb-36" value="&lt;font style=&quot;font-size: 10px;&quot;&gt;----&lt;/font&gt;" style="text;html=1;strokeColor=none;fillColor=none;align=center;verticalAlign=middle;whiteSpace=wrap;rounded=0;" vertex="1" parent="1">
          <mxGeometry x="320" y="305" width="30" height="20" as="geometry" />
        </mxCell>
        <mxCell id="dY17clIJ0vEmdPIZtcdb-37" value="&lt;font style=&quot;font-size: 10px;&quot;&gt;----&lt;/font&gt;" style="text;html=1;strokeColor=none;fillColor=none;align=center;verticalAlign=middle;whiteSpace=wrap;rounded=0;" vertex="1" parent="1">
          <mxGeometry x="270" y="305" width="30" height="20" as="geometry" />
        </mxCell>
        <mxCell id="dY17clIJ0vEmdPIZtcdb-40" value="&lt;font style=&quot;font-size: 24px;&quot;&gt;FS-16X&lt;/font&gt;" style="text;html=1;strokeColor=none;fillColor=none;align=center;verticalAlign=middle;whiteSpace=wrap;rounded=0;" vertex="1" parent="1">
          <mxGeometry x="110" y="150" width="400" height="30" as="geometry" />
        </mxCell>
      </root>
    </mxGraphModel>
  </diagram>
</mxfile>
